<svg xmlns="http://www.w3.org/2000/svg" width="400" height="250" viewBox="0 0 400 250">
  <defs>
    <!-- Membership Pass Pattern -->
    <pattern id="membershipPattern" x="0" y="0" width="60" height="60" patternUnits="userSpaceOnUse">
      <rect width="60" height="60" fill="rgba(255,255,255,0.05)"/>
      <circle cx="30" cy="30" r="15" fill="none" stroke="rgba(255,255,255,0.1)" stroke-width="1"/>
      <circle cx="30" cy="30" r="8" fill="rgba(255,255,255,0.08)"/>
      <path d="M20 20 L40 20 L40 40 L20 40 Z" fill="none" stroke="rgba(255,255,255,0.06)" stroke-width="0.5"/>
    </pattern>

    <!-- Gym Pass Pattern -->
    <pattern id="gymPattern" x="0" y="0" width="80" height="40" patternUnits="userSpaceOnUse">
      <rect width="80" height="40" fill="rgba(255,255,255,0.03)"/>
      <!-- Dumbbell shapes -->
      <g fill="rgba(255,255,255,0.08)">
        <rect x="10" y="15" width="8" height="10" rx="2"/>
        <rect x="14" y="18" width="12" height="4"/>
        <rect x="22" y="15" width="8" height="10" rx="2"/>
      </g>
      <g fill="rgba(255,255,255,0.06)" transform="translate(40,0)">
        <rect x="10" y="15" width="8" height="10" rx="2"/>
        <rect x="14" y="18" width="12" height="4"/>
        <rect x="22" y="15" width="8" height="10" rx="2"/>
      </g>
    </pattern>

    <!-- Cinema Pass Pattern -->
    <pattern id="cinemaPattern" x="0" y="0" width="70" height="50" patternUnits="userSpaceOnUse">
      <rect width="70" height="50" fill="rgba(255,255,255,0.04)"/>
      <!-- Film reel -->
      <circle cx="35" cy="25" r="12" fill="none" stroke="rgba(255,255,255,0.08)" stroke-width="1"/>
      <circle cx="35" cy="25" r="8" fill="none" stroke="rgba(255,255,255,0.06)" stroke-width="1"/>
      <circle cx="35" cy="25" r="4" fill="rgba(255,255,255,0.05)"/>
      <!-- Small circles around -->
      <circle cx="35" cy="13" r="1.5" fill="rgba(255,255,255,0.1)"/>
      <circle cx="35" cy="37" r="1.5" fill="rgba(255,255,255,0.1)"/>
      <circle cx="23" cy="25" r="1.5" fill="rgba(255,255,255,0.1)"/>
      <circle cx="47" cy="25" r="1.5" fill="rgba(255,255,255,0.1)"/>
    </pattern>

    <!-- Transit Pass Pattern -->
    <pattern id="transitPattern" x="0" y="0" width="50" height="30" patternUnits="userSpaceOnUse">
      <rect width="50" height="30" fill="rgba(255,255,255,0.03)"/>
      <!-- Bus/Train shape -->
      <rect x="10" y="10" width="30" height="10" rx="5" fill="rgba(255,255,255,0.06)"/>
      <rect x="12" y="12" width="6" height="6" rx="1" fill="rgba(255,255,255,0.08)"/>
      <rect x="20" y="12" width="6" height="6" rx="1" fill="rgba(255,255,255,0.08)"/>
      <rect x="28" y="12" width="6" height="6" rx="1" fill="rgba(255,255,255,0.08)"/>
      <!-- Wheels -->
      <circle cx="15" cy="22" r="2" fill="rgba(255,255,255,0.1)"/>
      <circle cx="35" cy="22" r="2" fill="rgba(255,255,255,0.1)"/>
    </pattern>

    <!-- Library Pass Pattern -->
    <pattern id="libraryPattern" x="0" y="0" width="60" height="40" patternUnits="userSpaceOnUse">
      <rect width="60" height="40" fill="rgba(255,255,255,0.04)"/>
      <!-- Book shapes -->
      <rect x="15" y="12" width="12" height="16" rx="1" fill="rgba(255,255,255,0.06)"/>
      <rect x="33" y="10" width="12" height="20" rx="1" fill="rgba(255,255,255,0.08)"/>
      <line x1="21" y1="16" x2="21" y2="24" stroke="rgba(255,255,255,0.1)" stroke-width="1"/>
      <line x1="39" y1="14" x2="39" y2="26" stroke="rgba(255,255,255,0.1)" stroke-width="1"/>
    </pattern>

    <!-- Event Pass Pattern -->
    <pattern id="eventPattern" x="0" y="0" width="90" height="45" patternUnits="userSpaceOnUse">
      <rect width="90" height="45" fill="rgba(255,255,255,0.03)"/>
      <!-- Star shapes -->
      <g fill="rgba(255,255,255,0.08)">
        <polygon points="25,15 27,21 33,21 28,25 30,31 25,27 20,31 22,25 17,21 23,21"/>
        <polygon points="65,15 67,21 73,21 68,25 70,31 65,27 60,31 62,25 57,21 63,21" transform="scale(0.7)" transform-origin="65 23"/>
      </g>
    </pattern>

    <!-- Hotel Pass Pattern -->
    <pattern id="hotelPattern" x="0" y="0" width="80" height="50" patternUnits="userSpaceOnUse">
      <rect width="80" height="50" fill="rgba(255,255,255,0.04)"/>
      <!-- Hotel building -->
      <rect x="25" y="15" width="30" height="20" fill="rgba(255,255,255,0.06)"/>
      <!-- Windows -->
      <rect x="28" y="18" width="4" height="4" fill="rgba(255,255,255,0.08)"/>
      <rect x="34" y="18" width="4" height="4" fill="rgba(255,255,255,0.08)"/>
      <rect x="40" y="18" width="4" height="4" fill="rgba(255,255,255,0.08)"/>
      <rect x="46" y="18" width="4" height="4" fill="rgba(255,255,255,0.08)"/>
      <!-- Door -->
      <rect x="37" y="28" width="6" height="7" fill="rgba(255,255,255,0.1)"/>
    </pattern>

    <!-- Concert Pass Pattern -->
    <pattern id="concertPattern" x="0" y="0" width="70" height="35" patternUnits="userSpaceOnUse">
      <rect width="70" height="35" fill="rgba(255,255,255,0.03)"/>
      <!-- Musical notes -->
      <g fill="rgba(255,255,255,0.08)">
        <circle cx="25" cy="20" r="3"/>
        <rect x="27" y="12" width="1.5" height="8"/>
        <circle cx="45" cy="15" r="2.5"/>
        <rect x="47" y="10" width="1.5" height="5"/>
      </g>
      <!-- Sound waves -->
      <g fill="none" stroke="rgba(255,255,255,0.06)" stroke-width="1">
        <path d="M15 17 Q20 12 15 22"/>
        <path d="M55 12 Q60 17 55 22"/>
      </g>
    </pattern>

    <!-- Medical Pass Pattern -->
    <pattern id="medicalPattern" x="0" y="0" width="60" height="60" patternUnits="userSpaceOnUse">
      <rect width="60" height="60" fill="rgba(255,255,255,0.04)"/>
      <!-- Medical cross -->
      <rect x="26" y="20" width="8" height="20" fill="rgba(255,255,255,0.08)"/>
      <rect x="20" y="26" width="20" height="8" fill="rgba(255,255,255,0.08)"/>
      <!-- Heart shape -->
      <g fill="rgba(255,255,255,0.06)" transform="translate(35,40) scale(0.5)">
        <path d="M12 21.35l-1.45-1.32C5.4 15.36 2 12.28 2 8.5 2 5.42 4.42 3 7.5 3c1.74 0 3.41.81 4.5 2.09C13.09 3.81 14.76 3 16.5 3 19.58 3 22 5.42 22 8.5c0 3.78-3.4 6.86-8.55 11.54L12 21.35z"/>
      </g>
    </pattern>
  </defs>
</svg>